<!-- Generated by IcoMoon.io -->
<svg version="1.1" xmlns="http://www.w3.org/2000/svg" width="21" height="32" viewBox="0 0 21 32">
<title>M2</title>
<path d="M16.288 3.2h2.112v22.4h-1.984v-11.84c0-2.368 0.064-4.352 0.192-6.336l-0.128-0.032c-0.576 1.6-1.472 3.744-2.304 5.888l-2.752 7.040h-1.984l-2.752-7.040c-0.832-2.144-1.728-4.288-2.304-5.888l-0.128 0.032c0.128 1.984 0.192 3.968 0.192 6.336v11.84h-1.984v-22.4h2.112l4 9.664c0.576 1.44 1.376 3.744 1.792 4.992h0.128c0.416-1.248 1.216-3.552 1.792-4.992z"></path>
</svg>
