<!-- Generated by IcoMoon.io -->
<svg version="1.1" xmlns="http://www.w3.org/2000/svg" width="21" height="32" viewBox="0 0 21 32">
<title>R</title>
<path d="M10.4 13.728h-4.544v9.792h-2.912v-22.272h8.704c4.576 0 7.008 2.496 7.008 5.952 0 2.912-1.664 4.672-3.808 5.248 1.824 0.48 3.392 1.856 3.392 5.696v0.96c0 1.536-0.064 3.488 0.32 4.416h-2.88c-0.416-0.96-0.384-2.688-0.384-4.8v-0.448c0-3.168-0.896-4.544-4.896-4.544zM5.856 3.744v7.488h4.832c3.424 0 4.896-1.28 4.896-3.776 0-2.368-1.536-3.712-4.544-3.712h-5.184z"></path>
</svg>
